# xmcd
#
# Track frame offsets:
#	150
#	18088
#	33996
#	53708
#	70456
#	85393
#	103274
#	116740
#	130922
#	146074
#	162357
#	178102
#	192562
#	209433
#	223954
#	240893
#	256226
#	270987
#	284566
#	299602
#
# Disc length: 4234 seconds
#
# Revision: 0
# Processed by: cddbd v1.5.2PL0 Copyright (c) Steve Scherf et al.
# Submitted via: EasyCDDAExtractor 11.5.0.1
#
DISCID=3e108814
DTITLE=Various Artist - NCT 78
DYEAR=2005
DGENRE=Country
TTITLE0=Kenny Chesney - Who You'd Be Today
TTITLE1=Big and Rich - Comin' To Your City
TTITLE2=Faith Hill - Like We Never Loved At All
TTITLE3=Trace Adkins - Honky Tonk Badonkadonk
TTITLE4=George Strait - She Let Herself Go
TTITLE5=Shania Twain - Shoes
TTITLE6=Toby Keith - Big Blue Note
TTITLE7=Miranda Lambert - Kerosene
TTITLE8=Cross Canadian Ragweed - Fightin' For
TTITLE9=Brad Paisley ft. Dolly Parton - When I Get Where I'm Going
TTITLE10=Danielle Peck - I Don't
TTITLE11=Trent Tomlinson - Drunker Than Me
TTITLE12=Clint Black - Code Of The West
TTITLE13=Erika Jo - I'm Not Lisa
TTITLE14=Mike McClure Band - Remain
TTITLE15=Van Zant - Nobody Gonna Tell Me What To Do
TTITLE16=Shannon Brown - Corn Fed
TTITLE17=Deryl Dodd - Stronger Proof
TTITLE18=Lila McCann ft. Jim Brickman - I'm Amazed
TTITLE19=Keith Bryant - Somebody
EXTD=
EXTT0=
EXTT1=
EXTT2=
EXTT3=
EXTT4=
EXTT5=
EXTT6=
EXTT7=
EXTT8=
EXTT9=
EXTT10=
EXTT11=
EXTT12=
EXTT13=
EXTT14=
EXTT15=
EXTT16=
EXTT17=
EXTT18=
EXTT19=
PLAYORDER=
